<mxfile host="app.diagrams.net" modified="2021-02-23T11:31:00.922Z" agent="5.0 (Windows NT 10.0; Win64; x64) AppleWebKit/537.36 (KHTML, like Gecko) Chrome/88.0.4324.182 Safari/537.36" etag="52pN0-MGaFzZsgL23SM1" version="14.4.2" type="github">
  <diagram id="uh9-yXM0jONOBvQ6Ci0a" name="Page-1">
    <mxGraphModel dx="1422" dy="762" grid="1" gridSize="10" guides="1" tooltips="1" connect="1" arrows="1" fold="1" page="1" pageScale="1" pageWidth="850" pageHeight="1100" math="0" shadow="0">
      <root>
        <mxCell id="0" />
        <mxCell id="1" parent="0" />
        <mxCell id="7wqEbiXhT5AJbG04wZAC-1" value="内容管理系统" style="ellipse;whiteSpace=wrap;html=1;fontSize=20;" vertex="1" parent="1">
          <mxGeometry x="480" y="160" width="120" height="80" as="geometry" />
        </mxCell>
        <mxCell id="7wqEbiXhT5AJbG04wZAC-2" value="电商系统" style="ellipse;whiteSpace=wrap;html=1;fontSize=20;" vertex="1" parent="1">
          <mxGeometry x="270" y="160" width="120" height="80" as="geometry" />
        </mxCell>
        <mxCell id="7wqEbiXhT5AJbG04wZAC-3" value="后台管理系统" style="ellipse;whiteSpace=wrap;html=1;fontSize=20;" vertex="1" parent="1">
          <mxGeometry x="690" y="160" width="120" height="80" as="geometry" />
        </mxCell>
        <mxCell id="7wqEbiXhT5AJbG04wZAC-7" value="用户服务" style="rounded=0;whiteSpace=wrap;html=1;fontSize=20;" vertex="1" parent="1">
          <mxGeometry x="270" y="350" width="120" height="60" as="geometry" />
        </mxCell>
        <mxCell id="7wqEbiXhT5AJbG04wZAC-8" value="订单服务" style="rounded=0;whiteSpace=wrap;html=1;fontSize=20;" vertex="1" parent="1">
          <mxGeometry x="487" y="350" width="120" height="60" as="geometry" />
        </mxCell>
        <mxCell id="7wqEbiXhT5AJbG04wZAC-9" value="其他服务" style="rounded=0;whiteSpace=wrap;html=1;fontSize=20;" vertex="1" parent="1">
          <mxGeometry x="690" y="350" width="120" height="60" as="geometry" />
        </mxCell>
        <mxCell id="7wqEbiXhT5AJbG04wZAC-14" value="" style="endArrow=classic;html=1;fontSize=20;exitX=0.5;exitY=1;exitDx=0;exitDy=0;" edge="1" parent="1" source="7wqEbiXhT5AJbG04wZAC-2">
          <mxGeometry width="50" height="50" relative="1" as="geometry">
            <mxPoint x="400" y="370" as="sourcePoint" />
            <mxPoint x="330" y="350" as="targetPoint" />
          </mxGeometry>
        </mxCell>
        <mxCell id="7wqEbiXhT5AJbG04wZAC-15" value="" style="endArrow=classic;html=1;fontSize=20;exitX=0.442;exitY=1.025;exitDx=0;exitDy=0;entryX=0.5;entryY=0;entryDx=0;entryDy=0;exitPerimeter=0;" edge="1" parent="1" source="7wqEbiXhT5AJbG04wZAC-1" target="7wqEbiXhT5AJbG04wZAC-7">
          <mxGeometry width="50" height="50" relative="1" as="geometry">
            <mxPoint x="340" y="250" as="sourcePoint" />
            <mxPoint x="310" y="360" as="targetPoint" />
          </mxGeometry>
        </mxCell>
        <mxCell id="7wqEbiXhT5AJbG04wZAC-16" value="" style="endArrow=classic;html=1;fontSize=20;exitX=0.5;exitY=1;exitDx=0;exitDy=0;entryX=0.5;entryY=0;entryDx=0;entryDy=0;" edge="1" parent="1" source="7wqEbiXhT5AJbG04wZAC-3" target="7wqEbiXhT5AJbG04wZAC-7">
          <mxGeometry width="50" height="50" relative="1" as="geometry">
            <mxPoint x="543.04" y="252" as="sourcePoint" />
            <mxPoint x="340" y="360" as="targetPoint" />
          </mxGeometry>
        </mxCell>
        <mxCell id="7wqEbiXhT5AJbG04wZAC-17" value="" style="endArrow=classic;html=1;fontSize=20;exitX=0.5;exitY=1;exitDx=0;exitDy=0;entryX=0.5;entryY=0;entryDx=0;entryDy=0;" edge="1" parent="1" source="7wqEbiXhT5AJbG04wZAC-2" target="7wqEbiXhT5AJbG04wZAC-8">
          <mxGeometry width="50" height="50" relative="1" as="geometry">
            <mxPoint x="553.04" y="262" as="sourcePoint" />
            <mxPoint x="350" y="370" as="targetPoint" />
          </mxGeometry>
        </mxCell>
        <mxCell id="7wqEbiXhT5AJbG04wZAC-18" value="" style="endArrow=classic;html=1;fontSize=20;exitX=0.5;exitY=1;exitDx=0;exitDy=0;" edge="1" parent="1" source="7wqEbiXhT5AJbG04wZAC-1">
          <mxGeometry width="50" height="50" relative="1" as="geometry">
            <mxPoint x="563.04" y="272" as="sourcePoint" />
            <mxPoint x="540" y="350" as="targetPoint" />
          </mxGeometry>
        </mxCell>
        <mxCell id="7wqEbiXhT5AJbG04wZAC-19" value="" style="endArrow=classic;html=1;fontSize=20;entryX=0.5;entryY=0;entryDx=0;entryDy=0;exitX=0.5;exitY=1;exitDx=0;exitDy=0;" edge="1" parent="1" source="7wqEbiXhT5AJbG04wZAC-1" target="7wqEbiXhT5AJbG04wZAC-9">
          <mxGeometry width="50" height="50" relative="1" as="geometry">
            <mxPoint x="540" y="250" as="sourcePoint" />
            <mxPoint x="450" y="320" as="targetPoint" />
          </mxGeometry>
        </mxCell>
        <mxCell id="7wqEbiXhT5AJbG04wZAC-20" value="" style="endArrow=classic;html=1;fontSize=20;exitX=0.5;exitY=1;exitDx=0;exitDy=0;" edge="1" parent="1" source="7wqEbiXhT5AJbG04wZAC-3">
          <mxGeometry width="50" height="50" relative="1" as="geometry">
            <mxPoint x="400" y="370" as="sourcePoint" />
            <mxPoint x="540" y="350" as="targetPoint" />
          </mxGeometry>
        </mxCell>
        <mxCell id="7wqEbiXhT5AJbG04wZAC-21" value="" style="endArrow=classic;html=1;fontSize=20;exitX=0.5;exitY=1;exitDx=0;exitDy=0;entryX=0.5;entryY=0;entryDx=0;entryDy=0;" edge="1" parent="1" source="7wqEbiXhT5AJbG04wZAC-3" target="7wqEbiXhT5AJbG04wZAC-9">
          <mxGeometry width="50" height="50" relative="1" as="geometry">
            <mxPoint x="573.04" y="282" as="sourcePoint" />
            <mxPoint x="370" y="390" as="targetPoint" />
          </mxGeometry>
        </mxCell>
        <mxCell id="7wqEbiXhT5AJbG04wZAC-22" value="" style="endArrow=classic;html=1;fontSize=20;exitX=0.5;exitY=1;exitDx=0;exitDy=0;entryX=0.5;entryY=0;entryDx=0;entryDy=0;" edge="1" parent="1" source="7wqEbiXhT5AJbG04wZAC-2" target="7wqEbiXhT5AJbG04wZAC-9">
          <mxGeometry width="50" height="50" relative="1" as="geometry">
            <mxPoint x="583.04" y="292" as="sourcePoint" />
            <mxPoint x="380" y="400" as="targetPoint" />
          </mxGeometry>
        </mxCell>
        <mxCell id="7wqEbiXhT5AJbG04wZAC-23" value="分布式架构" style="swimlane;html=1;startSize=60;horizontal=1;containerType=tree;newEdgeStyle={&quot;edgeStyle&quot;:&quot;elbowEdgeStyle&quot;,&quot;startArrow&quot;:&quot;none&quot;,&quot;endArrow&quot;:&quot;none&quot;};fontSize=30;fontStyle=1" vertex="1" parent="1">
          <mxGeometry x="20" y="90" width="830" height="340" as="geometry" />
        </mxCell>
        <mxCell id="7wqEbiXhT5AJbG04wZAC-6" value="&lt;font style=&quot;font-size: 20px&quot;&gt;服务层&lt;/font&gt;" style="rounded=0;whiteSpace=wrap;html=1;fontSize=20;fontStyle=1;strokeColor=none;" vertex="1" parent="7wqEbiXhT5AJbG04wZAC-23">
          <mxGeometry x="20" y="260" width="160" height="60" as="geometry" />
        </mxCell>
        <mxCell id="7wqEbiXhT5AJbG04wZAC-4" value="&lt;font style=&quot;font-size: 20px;&quot;&gt;展示层/业务功能&lt;/font&gt;" style="rounded=0;whiteSpace=wrap;html=1;fontSize=20;fontStyle=1;strokeColor=none;" vertex="1" parent="7wqEbiXhT5AJbG04wZAC-23">
          <mxGeometry x="20" y="80" width="160" height="60" as="geometry" />
        </mxCell>
      </root>
    </mxGraphModel>
  </diagram>
</mxfile>
